<?xml version="1.0" encoding="UTF-8"?>
<svg width="144px" height="144px" viewBox="0 0 144 144" version="1.1" xmlns="http://www.w3.org/2000/svg" xmlns:xlink="http://www.w3.org/1999/xlink">
    <!-- Generator: Sketch 59.1 (86144) - https://sketch.com -->
    <title>Square Copy 2@1x</title>
    <desc>Created with Sketch.</desc>
    <g id="Page-1" stroke="none" stroke-width="1" fill="none" fill-rule="evenodd">
        <g id="Twizzle-Logo-(Core)-Copy" transform="translate(-56.000000, 0.000000)">
            <path d="M173.915968,88.6051719 C177.921855,88.6051719 181.087173,89.830168 183.412018,92.2801969 C185.736863,94.7302258 186.899268,98.3336814 186.899268,103.090672 C186.899268,103.555641 186.881385,104.065311 186.845618,104.619697 L186.759778,105.83004 C186.752625,105.920888 186.745471,106.009231 186.738318,106.095072 L168.604618,106.095072 C168.783452,107.740347 169.552428,109.045817 170.911568,110.011522 C172.270708,110.977227 174.09479,111.460072 176.383868,111.460072 C177.850309,111.460072 179.289903,111.325948 180.702693,111.057697 C182.115483,110.789446 183.268947,110.458607 184.163118,110.065172 L185.236118,116.556822 C184.806916,116.771423 184.234655,116.986021 183.519318,117.200622 C182.803981,117.415223 182.008181,117.602996 181.131893,117.763947 C180.255605,117.924898 179.31674,118.059021 178.315268,118.166322 C177.313796,118.273622 176.31234,118.327272 175.310868,118.327272 C172.771422,118.327272 170.562852,117.951726 168.685093,117.200622 C166.807334,116.449518 165.251499,115.421237 164.017543,114.115747 C162.783587,112.810257 161.871546,111.263364 161.281393,109.475022 C160.69124,107.68668 160.396168,105.755299 160.396168,103.680822 C160.396168,101.177143 160.780656,98.9864563 161.549643,97.1086969 C162.31863,95.2309375 163.329028,93.6661615 164.580868,92.4143219 C165.832708,91.1624823 167.272301,90.2146751 168.899693,89.5708719 C170.527084,88.9270687 172.199159,88.6051719 173.915968,88.6051719 Z M109.955768,89.3562719 L109.955768,94.7212719 L107.353743,97.6183719 L106.398991,98.6913733 C105.586942,99.6110863 104.733839,100.594664 103.839668,101.642122 C102.587828,103.108563 101.327066,104.646514 100.057343,106.256022 C98.7876199,107.86553 97.6341564,109.421364 96.5969179,110.923572 L110.224018,110.923572 L110.224018,117.576172 L86.8862679,117.576172 L86.8862679,112.854972 C87.6373717,111.567365 88.540471,110.181421 89.5955929,108.697097 C90.6507149,107.212773 91.7594704,105.719529 92.9218929,104.217322 C93.7937098,103.090666 94.6604872,101.989171 95.5222398,100.912819 L96.3823179,99.8448469 C97.526857,98.4320565 98.5819631,97.1534109 99.5476679,96.0088719 L87.5300679,96.0088719 L87.5300679,89.3562719 L109.955768,89.3562719 Z M137.570768,89.3562719 L137.570768,94.7212719 L134.968743,97.6183719 L134.013991,98.6913733 C133.201942,99.6110863 132.348839,100.594664 131.454668,101.642122 C130.202828,103.108563 128.942066,104.646514 127.672343,106.256022 C126.40262,107.86553 125.249156,109.421364 124.211918,110.923572 L137.839018,110.923572 L137.839018,117.576172 L114.501268,117.576172 L114.501268,112.854972 C115.252372,111.567365 116.155471,110.181421 117.210593,108.697097 C118.265715,107.212773 119.37447,105.719529 120.536893,104.217322 C121.40871,103.090666 122.275487,101.989171 123.13724,100.912819 L123.997318,99.8448469 C125.141857,98.4320565 126.196963,97.1534109 127.162668,96.0088719 L115.145068,96.0088719 L115.145068,89.3562719 L137.570768,89.3562719 Z M174.023268,95.2041219 C173.129097,95.2041219 172.360121,95.3561287 171.716318,95.6601469 C171.072515,95.9641651 170.53602,96.366536 170.106818,96.8672719 C169.677616,97.3680077 169.346777,97.9492102 169.114293,98.6108969 C168.928305,99.1402462 168.782378,99.6753118 168.676509,100.216104 L168.604618,100.622772 L179.173668,100.622772 C179.137901,99.9432018 179.021661,99.2815251 178.824943,98.6377219 C178.628225,97.9939187 178.324212,97.4216577 177.912893,96.9209219 C177.501574,96.420186 176.982963,96.0088735 176.357043,95.6869719 C175.731123,95.3650703 174.953206,95.2041219 174.023268,95.2041219 Z" id="zzle" fill="#4285F4"></path>
            <path d="M151.987268,83.0005219 L151.987868,106.685222 C151.987868,107.400559 152.041517,108.044352 152.148818,108.616622 C152.256118,109.188891 152.461775,109.671737 152.765793,110.065172 C153.069811,110.458607 153.507948,110.780504 154.080218,111.030872 C154.652487,111.28124 155.421463,111.442188 156.387168,111.513722 L155.260518,118.112672 C152.935673,118.076905 151.049,117.826541 149.600443,117.361572 C148.151886,116.896603 147.007364,116.243868 146.166843,115.403347 C145.326322,114.562826 144.754061,113.543486 144.450043,112.345297 C144.146025,111.147108 143.994018,109.796929 143.994018,108.294722 L143.993268,83.0005219 L151.987268,83.0005219 Z" id="zzle-copy" fill="#0A703E"></path>
            <path d="M99.5726441,28.8975764 L99.5726441,36.0330264 L88.3597941,36.0330264 L88.3597941,66.0770264 L79.9903941,66.0770264 L79.9903941,36.0330264 L68.7775441,36.0330264 L68.7775441,28.8975764 L99.5726441,28.8975764 Z M118.325394,49.8747264 C117.610057,52.5930066 116.850023,55.293363 116.045269,57.9758764 C115.240515,60.6583898 114.391065,63.3587461 113.496894,66.0770264 L107.273494,66.0770264 C106.688218,64.7113832 106.058612,63.1092871 105.38466,61.270698 L105.181144,60.7120264 C104.523928,58.896859 103.846183,56.9379516 103.147894,54.8352588 L102.847369,53.9253014 C102.042615,51.4752725 101.21999,48.882215 100.379469,46.1460514 C99.5389482,43.4098877 98.7252647,40.6469403 97.9383941,37.8571264 L106.361444,37.8571264 L107.300319,42.0686514 C107.640104,43.5887423 107.997767,45.1535183 108.373319,46.7630264 C108.748871,48.3725344 109.1423,49.9909599 109.553619,51.6183514 C109.964938,53.2457428 110.385192,54.8105189 110.814394,56.3127264 C111.279363,54.7389852 111.735383,53.1295013 112.182469,51.4842264 C112.629555,49.8389515 113.05875,48.220526 113.470069,46.6289014 L114.191125,43.8219343 C114.347067,43.211041 114.500148,42.608731 114.650369,42.0150014 C115.025921,40.5306773 115.356759,39.1447328 115.642894,37.8571264 L121.437094,37.8571264 L121.73515,39.1775137 C121.890138,39.8540986 122.054068,40.5552714 122.226941,41.2810374 L123.065908,44.7447121 C123.217558,45.3641894 123.37207,45.9922515 123.529444,46.6289014 C123.922879,48.220526 124.334192,49.8389515 124.763394,51.4842264 C125.192596,53.1295013 125.639675,54.7389852 126.104644,56.3127264 C126.533846,54.8105189 126.963042,53.2457428 127.392244,51.6183514 C127.821446,49.9909599 128.223817,48.3725344 128.599369,46.7630264 L129.149282,44.3823074 C129.238698,43.9911105 129.326997,43.6027079 129.414178,43.2170988 L130.611244,37.8571264 L130.611244,37.8571264 L138.926994,37.8571264 C138.140123,40.6469403 137.32644,43.4098877 136.485919,46.1460514 L135.769855,48.4562899 C135.176786,50.3522863 134.592843,52.1752807 134.018019,53.9253014 C133.213265,56.3753303 132.426406,58.6375493 131.657419,60.7120264 L131.24418,61.81518 C130.633634,63.4273418 130.064992,64.8479475 129.538244,66.0770264 L123.314844,66.0770264 C122.420673,63.3587461 121.544398,60.6583898 120.685994,57.9758764 C119.82759,55.293363 119.040731,52.5930066 118.325394,49.8747264 Z" id="Twi" fill="#4285F4" fill-rule="nonzero"></path>
            <polygon id="Path" fill="#0A703E" fill-rule="nonzero" points="151.992844 68.7757324 143.998994 68.7757324 143.998994 37.8571264 151.992844 37.8571264"></polygon>
            <path d="M152.743944,29.7023264 C152.743944,31.168767 152.27004,32.3222305 151.322219,33.1627514 C150.374398,34.0032722 149.256701,34.4235264 147.969094,34.4235264 C146.681488,34.4235264 145.56379,34.0032722 144.615969,33.1627514 C143.668148,32.3222305 143.194244,31.168767 143.194244,29.7023264 C143.194244,28.2358857 143.668148,27.0824222 144.615969,26.2419014 C145.56379,25.4013805 146.681488,24.9811264 147.969094,24.9811264 C149.256701,24.9811264 150.374398,25.4013805 151.322219,26.2419014 C152.27004,27.0824222 152.743944,28.2358857 152.743944,29.7023264 Z" id="Path" fill="#0A703E" fill-rule="nonzero"></path>
            <rect id="Horizontal-Line" fill="#0A703E" transform="translate(127.838184, 76.000000) rotate(90.000000) translate(-127.838184, -76.000000) " x="123.838184" y="16.9389158" width="8" height="118.122168"></rect>
        </g>
    </g>
</svg>